<?xml version="1.0" encoding="UTF-8"?>
<!DOCTYPE svg PUBLIC "-//W3C//DTD SVG 1.1//EN" "http://www.w3.org/Graphics/SVG/1.1/DTD/svg11.dtd">
<svg version="1.1" xmlns="http://www.w3.org/2000/svg" xmlns:xlink="http://www.w3.org/1999/xlink" width="2500" height="2500"  xml:space="preserve" id="daiCanvas">
    <!-- Generated by PaintCode - http://www.paintcodeapp.com -->
    <circle id="daiCanvas-oval" stroke="rgb(244, 183, 49)" stroke-width="40.98" stroke-miterlimit="10" fill="rgb(255, 255, 255)" cx="1250" cy="1250" r="1229.51" />
    <path id="daiCanvas-bezier2" stroke="none" fill="rgb(255, 255, 255)" d="M 635.25,1168.03 L 1065.57,1168.03 1250,963.11 1454.92,1168.03 1885.25,1168.03 1250,481.58 635.25,1168.03 Z M 635.25,1168.03" />
    <path id="daiCanvas-bezier" stroke="none" fill="rgb(244, 183, 49)" d="M 2227,935.23 L 2030.95,935.23 C 1923.02,636.06 1632.8,430 1250.07,430 L 620.63,430 620.63,935.23 402,935.23 402,1116.49 620.63,1116.49 620.63,1306.57 402,1306.57 402,1487.83 620.63,1487.83 620.63,1987 1250.07,1987 C 1628.4,1987 1916.41,1783.15 2027.1,1487.83 L 2227,1487.83 2227,1306.57 2071.15,1306.57 C 2075.01,1274.61 2076.66,1241.56 2076.66,1208.5 L 2076.66,1204.09 C 2076.66,1174.34 2075.01,1145.14 2072.25,1116.49 L 2227,1116.49 2227,935.23 Z M 796.85,591.98 L 1250.07,591.98 C 1530.92,591.98 1739.64,730.27 1836.01,935.23 L 796.85,935.23 796.85,591.98 Z M 1250.07,1824.47 L 796.85,1824.47 796.85,1487.83 1834.91,1487.83 C 1737.43,1689.48 1529.82,1824.47 1250.07,1824.47 Z M 1894.93,1212.91 C 1894.93,1244.86 1892.73,1276.27 1888.32,1306.57 L 796.85,1306.57 796.85,1116.49 1888.87,1116.49 C 1892.73,1146.24 1894.93,1177.1 1894.93,1208.5 L 1894.93,1212.91 Z M 1894.93,1212.91" />
</svg>
